<svg id="레이어_1" data-name="레이어 1" xmlns="http://www.w3.org/2000/svg" xmlns:xlink="http://www.w3.org/1999/xlink" viewBox="0 0 139.42 71.21"><defs><style>.cls-1{fill:url(#무제_그라디언트_15);}.cls-2{fill:url(#무제_그라디언트_15-2);}.cls-3{fill:url(#무제_그라디언트_15-3);}</style><linearGradient id="무제_그라디언트_15" x1="14.56" y1="2.58" x2="52.32" y2="79.98" gradientUnits="userSpaceOnUse"><stop offset="0" stop-color="#e95513"/><stop offset="0.5" stop-color="#f7b52c"/><stop offset="1" stop-color="#ea6000"/></linearGradient><linearGradient id="무제_그라디언트_15-2" x1="52.95" y1="-16.15" x2="90.72" y2="61.25" xlink:href="#무제_그라디언트_15"/><linearGradient id="무제_그라디언트_15-3" x1="89.37" y1="-33.92" x2="127.13" y2="43.48" xlink:href="#무제_그라디언트_15"/></defs><title>logo_short</title><path class="cls-1" d="M51.63,12.81a8.37,8.37,0,0,1-.05.89c0,.29-.07.59-.12.89L47.27,38.64a12.27,12.27,0,0,1-4.43,7.47,12.14,12.14,0,0,1-8,3.07H4.13L6.44,35.67H34.25L35,31.9H17.64a8.64,8.64,0,0,1-6.38-2.47,8.48,8.48,0,0,1-2.47-6.18q0-.49,0-1a9.24,9.24,0,0,1,.1-.92l1.22-6.78A12.15,12.15,0,0,1,14.5,7.16a12.21,12.21,0,0,1,8-3.07H42.81a8.56,8.56,0,0,1,6.34,2.48A8.46,8.46,0,0,1,51.63,12.81ZM23.12,17.6l-.66,3.77H36.73l.69-3.77Z" transform="translate(-4.11 -4.09)"/><path class="cls-2" d="M96.72,12.81a8.37,8.37,0,0,1,0,.89c0,.29-.07.59-.12.89L92.36,38.64a12.27,12.27,0,0,1-4.43,7.47,12.14,12.14,0,0,1-8,3.07H59.66a8.38,8.38,0,0,1-6.28-2.48,8.65,8.65,0,0,1-2.45-6.24c0-.31,0-.61,0-.91s.05-.6.1-.91l4.16-24a12.15,12.15,0,0,1,4.36-7.43,12.21,12.21,0,0,1,8-3.07H87.9a8.56,8.56,0,0,1,6.34,2.48A8.46,8.46,0,0,1,96.72,12.81ZM68.21,17.6,65.07,35.67H79.34L82.51,17.6Z" transform="translate(-4.11 -4.09)"/><path class="cls-3" d="M110.76,49.18H94.31L117.07,17.6H99.79l2.38-13.51h41.35Z" transform="translate(-4.11 -4.09)"/><path d="M25.49,58.93c0,.14,0,.27,0,.4l-.06.4L23.53,70.56a5.53,5.53,0,0,1-2,3.36,5.46,5.46,0,0,1-3.6,1.38H4.11L7.65,55H21.52a3.87,3.87,0,0,1,2.85,1.12A3.78,3.78,0,0,1,25.49,58.93ZM12.66,61.09l-1.42,8.13h6.43l1.42-8.13Z" transform="translate(-4.11 -4.09)"/><path d="M43.78,61.09H33l-.29,1.69H43.48l-.82,4.74H31.84l-.3,1.7H42.36L41.28,75.3H24.4L27.94,55H44.86Z" transform="translate(-4.11 -4.09)"/><path d="M64.09,61.09H51.57l-1.41,8.13h6.42l.31-1.7H54.17L55,62.78h8.8l-1.35,7.78a5.51,5.51,0,0,1-2,3.36,5.46,5.46,0,0,1-3.6,1.38H47.72a3.8,3.8,0,0,1-2.83-1.11,3.93,3.93,0,0,1-1.1-2.81c0-.14,0-.28,0-.41s0-.27,0-.41l1.88-10.83a5.4,5.4,0,0,1,2-3.34A5.51,5.51,0,0,1,51.3,55H65.17Z" transform="translate(-4.11 -4.09)"/><path d="M84.7,58.93c0,.14,0,.27,0,.4l-.06.4-.53,3.05a4.59,4.59,0,0,1-1.73,2.37,3.37,3.37,0,0,1,.91,2v.34L81.89,75.3h-6.1l1.4-7.78H70.75L69.37,75.3H63.32L66.85,55H80.73a3.87,3.87,0,0,1,2.85,1.12A3.78,3.78,0,0,1,84.7,58.93ZM71.87,61.09l-.3,1.69H78l.31-1.69Z" transform="translate(-4.11 -4.09)"/><path d="M103,61.09H92.16l-.3,1.69h10.83l-.82,4.74H91.05l-.3,1.7h10.82l-1.08,6.08H83.61L87.15,55h16.92Z" transform="translate(-4.11 -4.09)"/><path d="M121.6,61.09H110.78l-.3,1.69h10.83l-.82,4.74H109.66l-.29,1.7h10.82l-1.08,6.08H102.23L105.77,55h16.92Z" transform="translate(-4.11 -4.09)"/><path d="M141.91,61.09H129.39l-.29,1.69h7.77a3.89,3.89,0,0,1,2.89,1.12,3.81,3.81,0,0,1,1.11,2.81,2.82,2.82,0,0,1,0,.41c0,.13,0,.27,0,.4l-.54,3a5.9,5.9,0,0,1-5.59,4.74H120.84l1-6.08h12.52l.31-1.7h-7.79a3.89,3.89,0,0,1-2.87-1.11,3.78,3.78,0,0,1-1.12-2.78c0-.15,0-.29,0-.43s0-.28,0-.42l.55-3.05a5.45,5.45,0,0,1,2-3.34A5.54,5.54,0,0,1,129.13,55H143Z" transform="translate(-4.11 -4.09)"/></svg>