<svg id="layer1" xmlns="http://www.w3.org/2000/svg" xmlns:xlink="http://www.w3.org/1999/xlink" viewBox="0 0 444.13 47.18"><defs><style>.cls-1{fill:url(#무제_그라디언트_15);}.cls-2{fill:url(#무제_그라디언트_15-2);}.cls-3{fill:url(#무제_그라디언트_15-3);}.cls-4{fill:#231815;stroke:#231815;stroke-miterlimit:10;stroke-width:8px;}</style><linearGradient id="무제_그라디언트_15" x1="18.03" y1="4.58" x2="55.8" y2="81.98" gradientUnits="userSpaceOnUse"><stop offset="0" stop-color="#ea5514"/><stop offset="0.5" stop-color="#f8b62d"/><stop offset="1" stop-color="#eb6100"/></linearGradient><linearGradient id="무제_그라디언트_15-2" x1="56.42" y1="-14.15" x2="94.19" y2="63.25" xlink:href="#무제_그라디언트_15"/><linearGradient id="무제_그라디언트_15-3" x1="92.84" y1="-31.92" x2="130.61" y2="45.48" xlink:href="#무제_그라디언트_15"/></defs><title>logo2</title><path class="cls-1" d="M55.1,14.81a8.37,8.37,0,0,1-.05.89c0,.29-.07.59-.11.89l-4.2,24.05a12.27,12.27,0,0,1-4.43,7.47,12.12,12.12,0,0,1-8,3.07H7.6L9.91,37.67H37.73l.69-3.77H21.11a8.65,8.65,0,0,1-6.38-2.47,8.48,8.48,0,0,1-2.47-6.18q0-.49,0-1a9.24,9.24,0,0,1,.1-.92l1.22-6.78A12.2,12.2,0,0,1,18,9.16a12.23,12.23,0,0,1,8-3.07H46.28a8.48,8.48,0,0,1,8.82,8.72ZM26.59,19.6l-.66,3.77H40.2l.7-3.77Z" transform="translate(-7.6 -5.28)"/><path class="cls-2" d="M100.19,14.81a8.37,8.37,0,0,1,0,.89c0,.29-.07.59-.11.89l-4.2,24.05a12.27,12.27,0,0,1-4.43,7.47,12.12,12.12,0,0,1-8,3.07H63.13a8.38,8.38,0,0,1-6.28-2.48,8.64,8.64,0,0,1-2.44-6.24c0-.31,0-.61,0-.91s.06-.6.1-.91l4.16-24a12.2,12.2,0,0,1,4.36-7.43,12.23,12.23,0,0,1,8-3.07H91.37a8.48,8.48,0,0,1,8.82,8.72ZM71.68,19.6,68.55,37.67H82.82L86,19.6Z" transform="translate(-7.6 -5.28)"/><path class="cls-3" d="M114.23,51.18H97.78L120.54,19.6H103.26l2.38-13.51H147Z" transform="translate(-7.6 -5.28)"/><path class="cls-4" d="M156.07,9.87h17.09q7.32,0,11.06,3T188,22.08a29.46,29.46,0,0,1-.92,7q-2.29,9.74-7.72,14.25t-14.86,4.51H147.17Zm8.19,33a20.53,20.53,0,0,0,7.42-1.15,10.59,10.59,0,0,0,4.91-4.13,26.48,26.48,0,0,0,3.31-8.53,38.34,38.34,0,0,0,1.18-7.55c0-2.52-.77-4.26-2.29-5.22s-4.17-1.45-7.92-1.45H162l-6.61,28Z" transform="translate(-7.6 -5.28)"/><path class="cls-4" d="M204,9.87h29.39l-1.18,5H209.94l-2.68,11.51h19.83l-1.18,4.95H206.08l-2.75,11.57h22.26l-1.12,5H195.09Z" transform="translate(-7.6 -5.28)"/><path class="cls-4" d="M242.57,44.85q-4.41-3.59-4.41-10a21,21,0,0,1,.65-5.19q2.3-9.73,8.7-15t17.28-5.31a38.07,38.07,0,0,1,12,1.71l-1.31,5.54a33.73,33.73,0,0,0-11.46-1.77q-7.59,0-12,3.75T246,29.63a25.52,25.52,0,0,0-.65,5q0,4.31,2.74,6.34t8.71,2a31.76,31.76,0,0,0,9.36-1.18l2.49-10.62H258.12L259.17,27h16.62l-4.32,18.29a28.85,28.85,0,0,1-6.74,2.24,44.68,44.68,0,0,1-9.43.88Q247,48.45,242.57,44.85Z" transform="translate(-7.6 -5.28)"/><path class="cls-4" d="M292.16,9.87h18.72c3.88,0,6.81.76,8.8,2.3a7.74,7.74,0,0,1,3,6.49,15.06,15.06,0,0,1-.4,3.36A14,14,0,0,1,318.44,29a15.24,15.24,0,0,1-7.37,3.87,4.52,4.52,0,0,1,1.34,1.56,11.92,11.92,0,0,1,.82,2.45l2.75,11h-7.33L306,37.24A3.6,3.6,0,0,0,304.66,35a6.07,6.07,0,0,0-3.21-.62h-7.92l-3.14,13.45h-7.14Zm13,19.35a11.39,11.39,0,0,0,6.67-1.71A9,9,0,0,0,315.13,22a11.83,11.83,0,0,0,.39-2.77A3.73,3.73,0,0,0,314,15.94a8.79,8.79,0,0,0-4.87-1.06h-11l-3.34,14.34Z" transform="translate(-7.6 -5.28)"/><path class="cls-4" d="M337.52,9.87H366.9l-1.17,5H343.47l-2.68,11.51h19.83l-1.18,4.95H339.61l-2.75,11.57h22.25l-1.11,5H328.61Z" transform="translate(-7.6 -5.28)"/><path class="cls-4" d="M379,9.87h29.39l-1.18,5H384.91l-2.69,11.51h19.83l-1.17,4.95H381L378.3,42.91h22.25l-1.11,5H370.05Z" transform="translate(-7.6 -5.28)"/><path class="cls-4" d="M411.35,46.57l1.38-5.67a33.16,33.16,0,0,0,12,2.13,21.42,21.42,0,0,0,8-1.13A5.64,5.64,0,0,0,436,37.72a6.15,6.15,0,0,0,.19-1.36,3,3,0,0,0-1-2.33,8.53,8.53,0,0,0-3-1.62q-2-.72-5.79-1.66a20.16,20.16,0,0,1-7.66-3.24,6.16,6.16,0,0,1-2.42-5,11.86,11.86,0,0,1,.33-2.53q2.49-10.68,18.72-10.68a47.35,47.35,0,0,1,6.57.44,27.87,27.87,0,0,1,5,1.09l-1.31,5.67a30.21,30.21,0,0,0-10.6-1.72,20.59,20.59,0,0,0-7.76,1.18,5.52,5.52,0,0,0-3.43,4,4.61,4.61,0,0,0-.13,1.24,2.75,2.75,0,0,0,.85,2.06,7.62,7.62,0,0,0,2.71,1.5,49,49,0,0,0,5.4,1.51c3.84.91,6.6,2.07,8.28,3.51a6.76,6.76,0,0,1,2.52,5.34,14.16,14.16,0,0,1-.32,2.6,12.3,12.3,0,0,1-5.76,8q-4.52,2.74-13.42,2.74Q415.93,48.45,411.35,46.57Z" transform="translate(-7.6 -5.28)"/></svg>