<svg id="layer1" xmlns="http://www.w3.org/2000/svg" xmlns:xlink="http://www.w3.org/1999/xlink" viewBox="0 0 443.83 45.09"><defs><style>.cls-1{fill:url(#무제_그라디언트_15);}.cls-2{fill:url(#무제_그라디언트_15-2);}.cls-3{fill:url(#무제_그라디언트_15-3);}.cls-4{fill:#231815;}</style><linearGradient id="무제_그라디언트_15" x1="15.03" y1="8.54" x2="52.8" y2="85.94" gradientUnits="userSpaceOnUse"><stop offset="0" stop-color="#ea5514"/><stop offset="0.5" stop-color="#f8b62d"/><stop offset="1" stop-color="#eb6100"/></linearGradient><linearGradient id="무제_그라디언트_15-2" x1="53.42" y1="-10.19" x2="91.19" y2="67.2" xlink:href="#무제_그라디언트_15"/><linearGradient id="무제_그라디언트_15-3" x1="89.84" y1="-27.96" x2="127.61" y2="49.43" xlink:href="#무제_그라디언트_15"/></defs><title>logo</title><path class="cls-1" d="M52.1,18.77a8.53,8.53,0,0,1-.05.89c0,.28-.07.58-.11.89L47.74,44.6a12.22,12.22,0,0,1-4.43,7.46,12.09,12.09,0,0,1-8,3.08H4.6L6.91,41.63H34.73l.69-3.77H18.11a8.66,8.66,0,0,1-6.38-2.48,8.44,8.44,0,0,1-2.47-6.17q0-.5,0-1c0-.31.05-.62.1-.93l1.22-6.77A12.17,12.17,0,0,1,15,13.12a12.23,12.23,0,0,1,8-3.07H43.28a8.58,8.58,0,0,1,6.34,2.47A8.49,8.49,0,0,1,52.1,18.77ZM23.59,23.56l-.66,3.76H37.2l.7-3.76Z" transform="translate(-4.6 -10.05)"/><path class="cls-2" d="M97.19,18.77a8.53,8.53,0,0,1,0,.89c0,.28-.07.58-.11.89L92.83,44.6a12.22,12.22,0,0,1-4.43,7.46,12.09,12.09,0,0,1-8,3.08H60.13a8.38,8.38,0,0,1-6.28-2.48,8.67,8.67,0,0,1-2.44-6.24c0-.31,0-.62,0-.91s.06-.6.1-.91l4.16-24a12.17,12.17,0,0,1,4.36-7.43,12.23,12.23,0,0,1,8-3.07H88.37a8.58,8.58,0,0,1,6.34,2.47A8.49,8.49,0,0,1,97.19,18.77ZM68.68,23.56,65.55,41.63H79.82L83,23.56Z" transform="translate(-4.6 -10.05)"/><path class="cls-3" d="M111.23,55.14H94.78l22.76-31.58H100.26l2.38-13.51H144Z" transform="translate(-4.6 -10.05)"/><path class="cls-4" d="M187.37,18.77a8.53,8.53,0,0,1-.05.89c0,.28-.07.58-.12.89L183,44.6a12.22,12.22,0,0,1-4.43,7.46,12.1,12.1,0,0,1-8,3.08H139.87l7.86-45.09h30.82a8.59,8.59,0,0,1,6.34,2.47A8.49,8.49,0,0,1,187.37,18.77Zm-28.51,4.79-3.14,18.07H170l3.17-18.07Z" transform="translate(-4.6 -10.05)"/><path class="cls-4" d="M228,23.56H204l-.66,3.76h24.05l-1.82,10.54H201.47l-.66,3.77h24.05l-2.41,13.51H185l7.86-45.09h37.59Z" transform="translate(-4.6 -10.05)"/><path class="cls-4" d="M273.12,23.56H245.31l-3.14,18.07h14.27l.69-3.77h-6l1.81-10.54h19.56l-3,17.28A12.2,12.2,0,0,1,265,52.06a12.13,12.13,0,0,1-8,3.08H236.75a8.36,8.36,0,0,1-6.27-2.48A8.68,8.68,0,0,1,228,46.42a9,9,0,0,1,0-.91c0-.3.05-.6.09-.91l4.17-24a12.08,12.08,0,0,1,4.36-7.43,12.21,12.21,0,0,1,8-3.07h30.82Z" transform="translate(-4.6 -10.05)"/><path class="cls-4" d="M318.9,18.77a6.46,6.46,0,0,1,0,.89c0,.28-.07.58-.11.89l-1.19,6.77q-.39,2.31-3.83,5.25a7.62,7.62,0,0,1,2,4.53v.76l-3.07,17.28H299.12l3.1-17.28h-14.3l-3.07,17.28H271.4l7.86-45.09h30.82a8.61,8.61,0,0,1,6.35,2.47A8.48,8.48,0,0,1,318.9,18.77Zm-28.5,4.79-.66,3.76H304l.69-3.76Z" transform="translate(-4.6 -10.05)"/><path class="cls-4" d="M359.53,23.56h-24l-.66,3.76h24l-1.81,10.54H333l-.66,3.77h24L354,55.14H316.49l7.86-45.09h37.59Z" transform="translate(-4.6 -10.05)"/><path class="cls-4" d="M400.89,23.56H376.84l-.66,3.76h24.05l-1.82,10.54h-24l-.66,3.77h24l-2.41,13.51H357.85l7.86-45.09H403.3Z" transform="translate(-4.6 -10.05)"/><path class="cls-4" d="M446,23.56H418.2l-.66,3.76h17.28a8.66,8.66,0,0,1,6.4,2.48A8.46,8.46,0,0,1,443.7,36a9.08,9.08,0,0,1-.05.91c0,.3-.07.6-.11.91l-1.19,6.74a12.22,12.22,0,0,1-4.43,7.46,12.1,12.1,0,0,1-8,3.08H399.21l2.31-13.51h27.81l.7-3.77H412.72a8.64,8.64,0,0,1-6.38-2.48,8.45,8.45,0,0,1-2.48-6.17c0-.33,0-.65,0-1s.05-.62.1-.93l1.22-6.77a12.12,12.12,0,0,1,4.36-7.43,12.21,12.21,0,0,1,8-3.07h30.81Z" transform="translate(-4.6 -10.05)"/></svg>