<svg id="레이어_1" data-name="레이어 1" xmlns="http://www.w3.org/2000/svg" xmlns:xlink="http://www.w3.org/1999/xlink" viewBox="0 0 139.4 72.35"><defs><style>.cls-1{fill:url(#무제_그라디언트_15);}.cls-2{fill:url(#무제_그라디언트_15-2);}.cls-3{fill:url(#무제_그라디언트_15-3);}.cls-4{fill:#231815;}</style><linearGradient id="무제_그라디언트_15" x1="14.56" y1="2.58" x2="52.32" y2="79.98" gradientUnits="userSpaceOnUse"><stop offset="0" stop-color="#e95513"/><stop offset="0.5" stop-color="#f7b52c"/><stop offset="1" stop-color="#ea6000"/></linearGradient><linearGradient id="무제_그라디언트_15-2" x1="52.95" y1="-16.15" x2="90.72" y2="61.25" xlink:href="#무제_그라디언트_15"/><linearGradient id="무제_그라디언트_15-3" x1="89.37" y1="-33.92" x2="127.13" y2="43.48" xlink:href="#무제_그라디언트_15"/></defs><title>logo_short2</title><path class="cls-1" d="M51.63,12.81a8.37,8.37,0,0,1-.05.89c0,.29-.07.59-.12.89L47.27,38.64a12.27,12.27,0,0,1-4.43,7.47,12.14,12.14,0,0,1-8,3.07H4.13L6.44,35.67H34.25L35,31.9H17.64a8.64,8.64,0,0,1-6.38-2.47,8.48,8.48,0,0,1-2.47-6.18q0-.49,0-1a9.24,9.24,0,0,1,.1-.92l1.22-6.78A12.15,12.15,0,0,1,14.5,7.16a12.21,12.21,0,0,1,8-3.07H42.81a8.56,8.56,0,0,1,6.34,2.48A8.46,8.46,0,0,1,51.63,12.81ZM23.12,17.6l-.66,3.77H36.73l.69-3.77Z" transform="translate(-4.13 -4.09)"/><path class="cls-2" d="M96.72,12.81a8.37,8.37,0,0,1,0,.89c0,.29-.07.59-.12.89L92.36,38.64a12.27,12.27,0,0,1-4.43,7.47,12.14,12.14,0,0,1-8,3.07H59.66a8.38,8.38,0,0,1-6.28-2.48,8.65,8.65,0,0,1-2.45-6.24c0-.31,0-.61,0-.91s.05-.6.1-.91l4.16-24a12.15,12.15,0,0,1,4.36-7.43,12.21,12.21,0,0,1,8-3.07H87.9a8.56,8.56,0,0,1,6.34,2.48A8.46,8.46,0,0,1,96.72,12.81ZM68.21,17.6,65.07,35.67H79.34L82.51,17.6Z" transform="translate(-4.13 -4.09)"/><path class="cls-3" d="M110.76,49.18H94.31L117.07,17.6H99.79l2.38-13.51h41.35Z" transform="translate(-4.13 -4.09)"/><path class="cls-4" d="M10.38,57.34h7.67a7.85,7.85,0,0,1,5,1.33,5,5,0,0,1,1.67,4.14A13.36,13.36,0,0,1,24.27,66a11.44,11.44,0,0,1-3.46,6.39,10.14,10.14,0,0,1-6.67,2H6.39Zm3.67,14.82a9.33,9.33,0,0,0,3.34-.52,4.74,4.74,0,0,0,2.2-1.85A12,12,0,0,0,21.07,66a17.13,17.13,0,0,0,.53-3.38,2.56,2.56,0,0,0-1-2.35A7.09,7.09,0,0,0,17,59.59h-4l-3,12.57Z" transform="translate(-4.13 -4.09)"/><path class="cls-4" d="M14.14,76.17h-10L9,55.54h9.09a9.56,9.56,0,0,1,6.08,1.73,6.71,6.71,0,0,1,2.34,5.54A14.84,14.84,0,0,1,26,66.39,13.15,13.15,0,0,1,22,73.73,11.87,11.87,0,0,1,14.14,76.17Zm-1.78-5.81h1.69A7.52,7.52,0,0,0,16.73,70a3,3,0,0,0,1.37-1.18,10.42,10.42,0,0,0,1.22-3.24,14.61,14.61,0,0,0,.48-3c0-.43-.07-.76-.19-.83A5.44,5.44,0,0,0,17,61.38H14.48Z" transform="translate(-4.13 -4.09)"/><path class="cls-4" d="M31.87,57.34H45.06l-.53,2.25h-10l-1.21,5.16h8.9L41.71,67h-8.9l-1.23,5.19h10l-.5,2.22H27.88Z" transform="translate(-4.13 -4.09)"/><polygon class="cls-4" points="38.37 72.08 21.49 72.08 26.32 51.45 43.19 51.45 41.82 57.29 31.84 57.29 31.48 58.86 40.38 58.86 39 64.67 30.1 64.67 29.72 66.27 39.68 66.27 38.37 72.08"/><path class="cls-4" d="M49.18,73a5.49,5.49,0,0,1-2-4.5,9.78,9.78,0,0,1,.29-2.33,12,12,0,0,1,3.91-6.75,11.82,11.82,0,0,1,7.75-2.38,17.11,17.11,0,0,1,5.4.77L64,60.33a15.06,15.06,0,0,0-5.13-.8,8.07,8.07,0,0,0-5.39,1.68,8.83,8.83,0,0,0-2.72,5,12.08,12.08,0,0,0-.29,2.25,3.32,3.32,0,0,0,1.23,2.85,6.73,6.73,0,0,0,3.91.91,14.27,14.27,0,0,0,4.2-.53l1.11-4.76H56.15L56.62,65h7.46l-1.94,8.2a12.83,12.83,0,0,1-3,1,20.31,20.31,0,0,1-4.23.39A8.83,8.83,0,0,1,49.18,73Z" transform="translate(-4.13 -4.09)"/><path class="cls-4" d="M54.89,76.44a10.56,10.56,0,0,1-6.84-2,7.23,7.23,0,0,1-2.64-5.89,11.41,11.41,0,0,1,.34-2.77,13.85,13.85,0,0,1,4.5-7.69,13.6,13.6,0,0,1,8.9-2.79,18.89,18.89,0,0,1,6,.86l1.55.52-1.42,6L63.36,62a13.63,13.63,0,0,0-4.53-.68,6.39,6.39,0,0,0-4.23,1.25,7.14,7.14,0,0,0-2.12,4,9.63,9.63,0,0,0-.26,1.86c0,1,.37,1.3.51,1.4a4.89,4.89,0,0,0,2.84.56,15.26,15.26,0,0,0,2.7-.21l.35-1.49H53.86l1.36-5.47H66.35L63.7,74.47l-.75.37A14.19,14.19,0,0,1,59.5,76,21.86,21.86,0,0,1,54.89,76.44Z" transform="translate(-4.13 -4.09)"/><path class="cls-4" d="M71.42,57.34h8.4a6.38,6.38,0,0,1,4,1,3.47,3.47,0,0,1,1.33,2.91,7.43,7.43,0,0,1-.17,1.51,6.41,6.41,0,0,1-1.72,3.11,6.8,6.8,0,0,1-3.3,1.73,2.16,2.16,0,0,1,.6.7,5.56,5.56,0,0,1,.37,1.1l1.23,4.95H78.82l-1.2-4.76a1.66,1.66,0,0,0-.59-1,2.76,2.76,0,0,0-1.44-.27H72l-1.41,6h-3.2ZM77.24,66a5.11,5.11,0,0,0,3-.77,4.07,4.07,0,0,0,1.5-2.46,5.7,5.7,0,0,0,.17-1.25,1.68,1.68,0,0,0-.69-1.48A3.9,3.9,0,0,0,79,59.59H74.09L72.6,66Z" transform="translate(-4.13 -4.09)"/><path class="cls-4" d="M84.4,76.17h-7l-1.52-6H73.46l-1.41,6H65.17L70,55.54h9.82a8,8,0,0,1,5,1.41,5.26,5.26,0,0,1,2,4.33,9.24,9.24,0,0,1-.22,1.9,8.22,8.22,0,0,1-2.21,4,7.86,7.86,0,0,1-2,1.4c0,.14.07.27.11.42Zm-8.57-6.25Zm-1-5.7h2.38a3.45,3.45,0,0,0,2-.44A2.3,2.3,0,0,0,80,62.36a3.25,3.25,0,0,0,.13-.82v0A3.81,3.81,0,0,0,79,61.38H75.52Z" transform="translate(-4.13 -4.09)"/><path class="cls-4" d="M91.77,57.34H105l-.53,2.25h-10l-1.2,5.16h8.89L101.6,67H92.71l-1.23,5.19h10l-.5,2.22H87.78Z" transform="translate(-4.13 -4.09)"/><polygon class="cls-4" points="98.27 72.08 81.39 72.08 86.22 51.45 103.09 51.45 101.72 57.29 91.74 57.29 91.37 58.86 100.28 58.86 98.89 64.67 90 64.67 89.62 66.27 99.57 66.27 98.27 72.08"/><path class="cls-4" d="M110.35,57.34h13.19L123,59.59H113l-1.21,5.16h8.9L120.19,67h-8.9l-1.23,5.19h10l-.5,2.22H106.36Z" transform="translate(-4.13 -4.09)"/><polygon class="cls-4" points="116.85 72.08 99.97 72.08 104.8 51.45 121.67 51.45 120.3 57.29 110.32 57.29 109.95 58.86 118.86 58.86 117.48 64.67 108.58 64.67 108.2 66.27 118.16 66.27 116.85 72.08"/><path class="cls-4" d="M124.89,73.8l.61-2.54a15.11,15.11,0,0,0,5.38.95,9.72,9.72,0,0,0,3.56-.5A2.52,2.52,0,0,0,136,69.83a2.71,2.71,0,0,0,.09-.61,1.37,1.37,0,0,0-.44-1,3.88,3.88,0,0,0-1.33-.72c-.6-.22-1.47-.46-2.6-.75a9,9,0,0,1-3.44-1.45A2.76,2.76,0,0,1,127.15,63a5.86,5.86,0,0,1,.14-1.14q1.12-4.78,8.4-4.79a21.26,21.26,0,0,1,2.95.2,12.94,12.94,0,0,1,2.25.49l-.59,2.54a13.62,13.62,0,0,0-4.76-.77,9.19,9.19,0,0,0-3.47.53,2.49,2.49,0,0,0-1.55,1.8,2.12,2.12,0,0,0-.06.56,1.2,1.2,0,0,0,.39.92,3.32,3.32,0,0,0,1.22.68,21.08,21.08,0,0,0,2.42.67,8.94,8.94,0,0,1,3.71,1.58,3,3,0,0,1,1.13,2.39,6,6,0,0,1-.15,1.17,5.49,5.49,0,0,1-2.58,3.58,11.8,11.8,0,0,1-6,1.23A15.48,15.48,0,0,1,124.89,73.8Z" transform="translate(-4.13 -4.09)"/><path class="cls-4" d="M130.58,76.44a17,17,0,0,1-6.38-1l-1.42-.59,1.46-6,1.9.73a13.34,13.34,0,0,0,4.74.83,7.6,7.6,0,0,0,2.86-.36c.19-.07.36-.18.47-.63v0a2.79,2.79,0,0,0-.55-.24,23.85,23.85,0,0,0-2.43-.69,10.79,10.79,0,0,1-4.13-1.8A4.56,4.56,0,0,1,125.35,63a7.67,7.67,0,0,1,.19-1.53c.66-2.83,3-6.19,10.15-6.19a23.24,23.24,0,0,1,3.2.21,14.62,14.62,0,0,1,2.58.57l1.53.53-1.41,6.11L139.67,62a11.94,11.94,0,0,0-4.13-.65,7.58,7.58,0,0,0-2.78.38.71.71,0,0,0-.46.46,2.55,2.55,0,0,0,.38.16,20,20,0,0,0,2.22.62,10.54,10.54,0,0,1,4.47,2,4.85,4.85,0,0,1,1.76,3.76,7.37,7.37,0,0,1-.19,1.53v0a7.27,7.27,0,0,1-3.4,4.71A13.34,13.34,0,0,1,130.58,76.44Z" transform="translate(-4.13 -4.09)"/></svg>