<svg id="layer1" xmlns="http://www.w3.org/2000/svg" viewBox="0 0 448.96 45.66"><defs><style>.cls-1{fill:#fff;}</style></defs><title>logo_white</title><path class="cls-1" d="M53.1,14.67a8.53,8.53,0,0,1-.05.89c0,.29-.07.58-.11.89L48.74,40.5A12.27,12.27,0,0,1,44.31,48a12.12,12.12,0,0,1-8,3.07H5.6L7.91,37.53H35.73l.69-3.77H19.11a8.62,8.62,0,0,1-6.38-2.48,8.44,8.44,0,0,1-2.47-6.17q0-.49,0-1c0-.31.05-.62.1-.93l1.22-6.77A12.2,12.2,0,0,1,16,9,12.23,12.23,0,0,1,24,6H44.28a8.48,8.48,0,0,1,8.82,8.72ZM24.59,19.46l-.66,3.76H38.2l.7-3.76Z" transform="translate(-5.6 -5.66)"/><path class="cls-1" d="M98.19,14.67a8.53,8.53,0,0,1,0,.89c0,.29-.07.58-.11.89L93.83,40.5A12.27,12.27,0,0,1,89.4,48a12.12,12.12,0,0,1-8,3.07H61.13a8.38,8.38,0,0,1-6.28-2.48,8.67,8.67,0,0,1-2.44-6.24c0-.31,0-.61,0-.91s.06-.6.1-.91l4.16-24A12.2,12.2,0,0,1,61.06,9a12.23,12.23,0,0,1,8-3.07H89.37a8.48,8.48,0,0,1,8.82,8.72ZM69.68,19.46,66.55,37.53H80.82L84,19.46Z" transform="translate(-5.6 -5.66)"/><path class="cls-1" d="M112.23,51H95.78l22.76-31.58H101.26L103.64,6H145Z" transform="translate(-5.6 -5.66)"/><path class="cls-1" d="M190.23,14.49a8.76,8.76,0,0,1,0,.91q0,.43-.12.9l-4.25,24.35a12.35,12.35,0,0,1-4.48,7.56,12.27,12.27,0,0,1-8.09,3.11H142.13l8-45.66H181.3a8.7,8.7,0,0,1,6.42,2.51A8.59,8.59,0,0,1,190.23,14.49Zm-28.87,4.85-3.17,18.3h14.45l3.21-18.3Z" transform="translate(-5.6 -5.66)"/><path class="cls-1" d="M231.37,19.34H207l-.67,3.82H230.7l-1.84,10.67H204.51l-.67,3.81h24.35l-2.44,13.68h-38l8-45.66h38.06Z" transform="translate(-5.6 -5.66)"/><path class="cls-1" d="M277.06,19.34H248.9l-3.18,18.3h14.45l.7-3.81h-6.12l1.84-10.67h19.8l-3,17.49a12.41,12.41,0,0,1-4.49,7.56,12.27,12.27,0,0,1-8.09,3.11H240.23a8.47,8.47,0,0,1-6.35-2.51,8.78,8.78,0,0,1-2.48-6.32c0-.31,0-.62,0-.92s.05-.61.1-.92l4.21-24.35a12.25,12.25,0,0,1,4.42-7.52,12.34,12.34,0,0,1,8.12-3.12H279.5Z" transform="translate(-5.6 -5.66)"/><path class="cls-1" d="M323.42,14.49a8.76,8.76,0,0,1-.05.91q-.06.43-.12.9L322,23.16c-.26,1.56-1.56,3.33-3.88,5.32a7.65,7.65,0,0,1,2,4.58v.77l-3.11,17.49H303.38l3.15-17.49H292l-3.11,17.49H275.32l8-45.66h31.21a8.71,8.71,0,0,1,6.42,2.51A8.59,8.59,0,0,1,323.42,14.49Zm-28.87,4.85-.67,3.82h14.45l.7-3.82Z" transform="translate(-5.6 -5.66)"/><path class="cls-1" d="M364.56,19.34H340.21l-.67,3.82h24.35l-1.84,10.67H337.7L337,37.64h24.35l-2.44,13.68H321l8-45.66H367Z" transform="translate(-5.6 -5.66)"/><path class="cls-1" d="M406.43,19.34H382.08l-.67,3.82h24.35l-1.84,10.67H379.58l-.67,3.81h24.35l-2.45,13.68h-38l8-45.66h38.06Z" transform="translate(-5.6 -5.66)"/><path class="cls-1" d="M452.12,19.34H424l-.67,3.82h17.49a8.74,8.74,0,0,1,6.49,2.51A8.56,8.56,0,0,1,449.78,32c0,.31,0,.62,0,.92s-.07.61-.12.92l-1.2,6.82a12.4,12.4,0,0,1-4.48,7.56,12.29,12.29,0,0,1-8.1,3.11h-31.1l2.34-13.68h28.16l.7-3.81H418.41A8.76,8.76,0,0,1,412,31.32a8.58,8.58,0,0,1-2.51-6.26c0-.33,0-.65,0-1s0-.62.1-.93l1.23-6.86a12.3,12.3,0,0,1,4.42-7.52,12.35,12.35,0,0,1,8.13-3.12h31.2Z" transform="translate(-5.6 -5.66)"/></svg>